HIERARCHY
ROOT Hips
{
	OFFSET 0.000000 0.000000 0.000000
	CHANNELS 6 Xposition Yposition Zposition Zrotation Yrotation Xrotation 
	JOINT LowerBack
	{
		OFFSET 0.000000 0.000000 0.000000
		CHANNELS 3 Zrotation Yrotation Xrotation
		JOINT Spine
		{
			OFFSET 0.028270 2.035590 -0.193380
			CHANNELS 3 Zrotation Yrotation Xrotation
			JOINT Spine1
			{
				OFFSET 0.056720 2.048850 -0.042750
				CHANNELS 3 Zrotation Yrotation Xrotation
				JOINT Neck
				{
					OFFSET 0.000000 0.000000 0.000000
					CHANNELS 3 Zrotation Yrotation Xrotation
					JOINT Neck1
					{
						OFFSET -0.054170 1.746240 0.172020
						CHANNELS 3 Zrotation Yrotation Xrotation
						JOINT Head
						{
							OFFSET 0.104070 1.761360 -0.123970
							CHANNELS 3 Zrotation Yrotation Xrotation
							End Site
							{
								OFFSET 0.000000 0.000000 0.000000
							}
						}
					}
				}
				JOINT LeftShoulder
				{
					OFFSET 0.000000 0.000000 0.000000
					CHANNELS 3 Zrotation Yrotation Xrotation
					JOINT LeftArm
					{
						OFFSET 3.362410 1.200890 -0.311210
						CHANNELS 3 Zrotation Yrotation Xrotation
						JOINT LeftForeArm
						{
							OFFSET 4.983000 -0.000000 -0.000000
							CHANNELS 3 Zrotation Yrotation Xrotation
							JOINT LeftHand
							{
								OFFSET 3.483560 -0.000000 -0.000000
								CHANNELS 3 Zrotation Yrotation Xrotation
								JOINT LeftFingerBase
								{
									OFFSET 0.000000 0.000000 0.000000
									CHANNELS 3 Zrotation Yrotation Xrotation
									JOINT LeftHandIndex1
									{
										OFFSET 0.715260 -0.000000 -0.000000
										CHANNELS 3 Zrotation Yrotation Xrotation
										End Site
										{
											OFFSET 0.000000 0.000000 0.000000
										}
									}
								}
								JOINT LThumb
								{
									OFFSET 0.000000 0.000000 0.000000
									CHANNELS 3 Zrotation Yrotation Xrotation
									End Site
									{
										OFFSET 0.000000 0.000000 0.000000
									}
								}
							}
						}
					}
				}
				JOINT RightShoulder
				{
					OFFSET 0.000000 0.000000 0.000000
					CHANNELS 3 Zrotation Yrotation Xrotation
					JOINT RightArm
					{
						OFFSET -3.136600 1.374050 -0.404650
						CHANNELS 3 Zrotation Yrotation Xrotation
						JOINT RightForeArm
						{
							OFFSET -5.241900 -0.000000 -0.000000
							CHANNELS 3 Zrotation Yrotation Xrotation
							JOINT RightHand
							{
								OFFSET -3.444170 -0.000000 -0.000000
								CHANNELS 3 Zrotation Yrotation Xrotation
								JOINT RightFingerBase
								{
									OFFSET 0.000000 0.000000 0.000000
									CHANNELS 3 Zrotation Yrotation Xrotation
									JOINT RightHandIndex1
									{
										OFFSET -0.622530 -0.000000 -0.000000
										CHANNELS 3 Zrotation Yrotation Xrotation
										End Site
										{
											OFFSET 0.000000 0.000000 0.000000
										}
									}
								}
								JOINT RThumb
								{
									OFFSET 0.000000 0.000000 0.000000
									CHANNELS 3 Zrotation Yrotation Xrotation
									End Site
									{
										OFFSET 0.000000 0.000000 0.000000
									}
								}
							}
						}
					}
				}
			}
		}
	}
}
}
MOTION
Frames: 15
Frame Time: 0.008333
-18.049008 15.946606 0.114847 27.277643 86.388325 44.355111 -12.046028 2.358273 -6.449505 -3.198775 3.103747 -4.816799 -4.519846 2.942065 -1.226788 5.142932 -1.508849 -9.866479 -1.966307 -0.122553 -0.714892 0.000000 0.000000 0.000000 -5.956557 18.793160 3.224537 -44.573941 32.475132 24.251287 -5.273456 -15.351521 -0.039332 -4.636718 11.236533 -0.446813 -0.151556 -0.108391 -0.000000 0.000000 0.000000 0.000000 0.000000 0.000000 0.000000 3.358909 7.167349 1.123318 45.768161 47.381187 23.835696 0.650127 78.866818 -0.023861 -2.922965 8.573102 -0.234664 0.020892 -0.583788 -0.000000 0.000000 0.000000 0.000000 0.000000 0.000000 0.000000 
-17.851094 15.961956 0.101551 29.489532 86.262503 46.005545 -12.118136 2.251279 -5.856425 -3.243645 2.998212 -4.737950 -4.769027 2.849051 -1.395237 5.544240 -1.096722 -9.795389 -2.215055 -0.142929 -0.717303 0.000000 0.000000 0.000000 -6.642993 18.272691 3.346403 -45.558951 30.187758 23.854241 -5.281664 -14.001969 -0.035721 -4.173291 10.783757 -0.384170 -0.149520 -0.092645 -0.000000 0.000000 0.000000 0.000000 0.000000 0.000000 0.000000 4.601472 7.827818 1.219932 48.210949 45.504706 24.773204 0.692984 77.285275 -0.025960 -3.542832 8.826578 -0.293798 0.042606 -0.577951 -0.000000 0.000000 0.000000 0.000000 0.000000 0.000000 0.000000 
-17.658568 15.976713 0.085649 31.734073 86.153445 47.669488 -12.124732 2.143163 -5.221006 -3.269011 2.887196 -4.651852 -5.004424 2.748103 -1.575375 5.889353 -0.688424 -9.688948 -2.462016 -0.163363 -0.709985 0.000000 0.000000 0.000000 -7.276428 17.703715 3.478419 -46.640171 27.673878 23.310280 -5.283085 -12.505148 -0.031687 -3.566829 10.264916 -0.310413 -0.146120 -0.075696 -0.000000 0.000000 0.000000 0.000000 0.000000 0.000000 0.000000 5.784022 8.445715 1.266778 50.666394 43.477119 25.509404 0.741205 75.393752 -0.029067 -4.304146 9.155149 -0.370459 0.063958 -0.571080 -0.000000 0.000000 0.000000 0.000000 0.000000 0.000000 0.000000 
-17.470608 15.991370 0.067092 34.000929 86.068500 49.355950 -12.063908 2.036615 -4.568216 -3.275602 2.773351 -4.561641 -5.223328 2.641287 -1.757794 6.179941 -0.299985 -9.551113 -2.701252 -0.183278 -0.693246 0.000000 0.000000 0.000000 -7.854312 17.091549 3.609251 -47.790208 24.938311 22.599130 -5.270713 -10.900590 -0.027268 -2.775051 9.670840 -0.224946 -0.140592 -0.058011 -0.000000 0.000000 0.000000 0.000000 0.000000 0.000000 0.000000 6.891202 8.987670 1.268929 53.110624 41.328530 26.010877 0.793061 73.166946 -0.033030 -5.198032 9.566990 -0.467056 0.084121 -0.562919 -0.000000 0.000000 0.000000 0.000000 0.000000 0.000000 0.000000 
-17.286301 16.006586 0.045967 36.282923 86.010581 51.080944 -11.938000 1.934156 -3.925380 -3.265249 2.659607 -4.468975 -5.423064 2.531404 -1.925419 6.420018 0.053912 -9.394547 -2.926236 -0.201935 -0.669967 0.000000 0.000000 0.000000 -8.370779 16.477323 3.727765 -48.978652 21.942731 21.780541 -5.234175 -9.228462 -0.022583 -1.764515 8.985416 -0.129367 -0.132113 -0.040187 -0.000000 0.000000 0.000000 0.000000 0.000000 0.000000 0.000000 7.904315 9.423879 1.230373 55.531863 39.096547 26.239471 0.845370 70.588663 -0.037581 -6.203303 10.061149 -0.584892 0.102187 -0.553028 -0.000000 0.000000 0.000000 0.000000 0.000000 0.000000 0.000000 
-17.104735 16.023120 0.022469 38.568447 85.978786 52.855189 -11.751282 1.839840 -3.321746 -3.240882 2.550435 -4.379887 -5.606327 2.422671 -2.076608 6.618447 0.365554 -9.219139 -3.132964 -0.219050 -0.639311 0.000000 0.000000 0.000000 -8.844097 15.830801 3.820627 -50.162342 18.767793 20.825379 -5.168955 -7.588609 -0.017897 -0.504201 8.195386 -0.027983 -0.120198 -0.023157 -0.000000 0.000000 0.000000 0.000000 0.000000 0.000000 0.000000 8.821266 9.737241 1.168411 57.914085 36.810059 26.156181 0.895103 67.654530 -0.042413 -7.301226 10.624509 -0.724771 0.117709 -0.540929 -0.000000 0.000000 0.000000 0.000000 0.000000 0.000000 0.000000 
-16.924864 16.041718 -0.002985 40.843447 85.969446 54.686242 -11.511380 1.756290 -2.784377 -3.205686 2.449213 -4.298490 -5.775855 2.318543 -2.205073 6.785853 0.630239 -9.030517 -3.317995 -0.234319 -0.602323 0.000000 0.000000 0.000000 -9.282042 15.148033 3.879675 -51.310443 15.460141 19.764228 -5.071107 -6.074367 -0.013529 1.014959 7.281968 0.071102 -0.104711 -0.007862 -0.000000 0.000000 0.000000 0.000000 0.000000 0.000000 0.000000 9.640754 9.918795 1.097864 60.248778 34.500357 25.716711 0.938871 64.372509 -0.047207 -8.471233 11.229523 -0.885791 0.130381 -0.526062 -0.000000 0.000000 0.000000 0.000000 0.000000 0.000000 0.000000 
-16.746112 16.063016 -0.029886 43.097208 85.977690 56.581434 -11.229382 1.682672 -2.332891 -3.162611 2.356168 -4.222982 -5.932623 2.219942 -2.288807 6.934769 0.843110 -8.852347 -3.477975 -0.247178 -0.565668 0.000000 0.000000 0.000000 -9.679642 14.518079 3.899662 -52.402224 11.949205 18.785577 -4.937097 -4.749029 -0.009852 2.759133 6.239235 0.154780 -0.086209 0.005102 -0.000000 0.000000 0.000000 0.000000 0.000000 0.000000 0.000000 10.359682 9.965036 1.023216 62.534605 32.214153 24.874961 0.972817 60.764013 -0.051663 -9.692752 11.836568 -1.064651 0.140022 -0.507828 -0.000000 0.000000 0.000000 0.000000 0.000000 0.000000 0.000000 
-16.567944 16.087714 -0.057606 45.319293 85.999701 58.540353 -10.914227 1.619431 -1.982618 -3.114352 2.272254 -4.158421 -6.083009 2.127813 -2.335976 7.079195 1.008939 -8.679094 -3.613558 -0.257871 -0.527559 0.000000 0.000000 0.000000 -10.052613 13.883930 3.879886 -53.423186 8.365596 17.839488 -4.776055 -3.722643 -0.007146 4.692683 5.061886 0.209744 -0.065835 0.015045 -0.000000 0.000000 0.000000 0.000000 0.000000 0.000000 0.000000 10.996693 9.888119 0.965703 64.756030 29.971549 23.586785 0.996072 56.862175 -0.055552 -10.956527 12.392548 -1.255845 0.146948 -0.485895 -0.000000 0.000000 0.000000 0.000000 0.000000 0.000000 0.000000 
-16.389812 16.116346 -0.085442 47.521922 86.032619 60.574823 -10.575206 1.565238 -1.739002 -3.062890 2.196445 -4.108770 -6.231405 2.041085 -2.358795 7.230241 1.143448 -8.500770 -3.726358 -0.266761 -0.485201 0.000000 0.000000 0.000000 -10.400770 13.180579 3.828153 -54.377052 4.839941 16.846627 -4.599097 -3.076574 -0.005500 6.754708 3.740703 0.220989 -0.045072 0.021629 0.000000 0.000000 0.000000 0.000000 0.000000 0.000000 0.000000 11.567430 9.715101 0.943236 66.898106 27.777435 21.797588 1.008587 52.712521 -0.058708 -12.248173 12.839639 -1.450169 0.151304 -0.460243 -0.000000 0.000000 0.000000 0.000000 0.000000 0.000000 0.000000 
-16.211419 16.149283 -0.112688 49.740969 86.075655 62.713549 -10.223423 1.513771 -1.593119 -3.009654 2.122742 -4.068137 -6.379224 1.954609 -2.342237 7.401843 1.245548 -8.337266 -3.817013 -0.273669 -0.444857 0.000000 0.000000 0.000000 -10.716573 12.490309 3.749957 -55.267686 1.306174 15.936267 -4.415455 -2.821899 -0.004936 8.834688 2.311400 0.177115 -0.026011 0.025519 0.000000 0.000000 0.000000 0.000000 0.000000 0.000000 0.000000 12.087477 9.457488 0.956610 68.944916 25.677995 19.480480 1.011020 48.361676 -0.061002 -13.555466 13.126754 -1.636320 0.153279 -0.431003 -0.000000 0.000000 0.000000 0.000000 0.000000 0.000000 0.000000 
-16.032604 16.186902 -0.138735 52.040087 86.129431 65.000200 -9.865028 1.460202 -1.529054 -2.955114 2.045984 -4.036936 -6.528538 1.863364 -2.300515 7.602216 1.328841 -8.177170 -3.888200 -0.279037 -0.403609 0.000000 0.000000 0.000000 -10.991778 11.749343 3.659096 -56.110090 -2.123069 14.990017 -4.237293 -2.985057 -0.005264 10.832360 0.794094 0.072823 -0.010476 0.027480 0.000000 0.000000 0.000000 0.000000 0.000000 0.000000 0.000000 12.574860 9.142957 1.018155 70.868097 23.682224 16.611013 1.006304 43.856898 -0.062387 -14.861643 13.218919 -1.802090 0.152977 -0.398893 -0.000000 0.000000 0.000000 0.000000 0.000000 0.000000 0.000000 
-15.853131 16.229666 -0.163135 54.506883 86.193296 67.498748 -9.506630 1.398876 -1.528935 -2.899873 1.960236 -4.018370 -6.680373 1.761187 -2.259604 7.838205 1.423953 -7.995269 -3.945492 -0.283696 -0.354657 0.000000 0.000000 0.000000 -11.203899 10.846640 3.574620 -56.920016 -5.272083 13.845061 -4.071323 -3.608613 -0.006226 12.640251 -0.783270 -0.089878 0.000296 0.028630 0.000000 0.000000 0.000000 0.000000 0.000000 0.000000 0.000000 13.053632 8.817881 1.141603 72.626791 21.765358 13.144933 0.997715 39.265063 -0.062851 -16.112345 13.097704 -1.931474 0.149980 -0.365161 0.000000 0.000000 0.000000 0.000000 0.000000 0.000000 0.000000 
-15.673002 16.277699 -0.185683 57.247614 86.269005 70.288513 -9.152089 1.320297 -1.562010 -2.843231 1.855951 -4.003160 -6.832044 1.639815 -2.206821 8.115372 1.523893 -7.810205 -3.988801 -0.287394 -0.303884 0.000000 0.000000 0.000000 -11.340391 9.876346 3.502124 -57.706404 -8.239829 12.634433 -3.920500 -4.637931 -0.007774 14.139577 -2.321973 -0.291781 0.004838 0.031203 0.000000 0.000000 0.000000 0.000000 0.000000 0.000000 0.000000 13.528845 8.487100 1.316966 74.187472 19.971379 9.127779 0.989971 34.611802 -0.062391 -17.277681 12.800121 -2.019863 0.144462 -0.331078 0.000000 0.000000 0.000000 0.000000 0.000000 0.000000 0.000000 
-15.492082 16.331186 -0.206474 60.372497 86.355681 73.456203 -8.804498 1.215890 -1.603587 -2.784887 1.724717 -3.986928 -6.982291 1.491808 -2.143890 8.438909 1.622654 -7.626044 -4.020416 -0.290302 -0.252709 0.000000 0.000000 0.000000 -11.391681 8.863633 3.446786 -58.471236 -11.030671 11.414257 -3.784793 -6.048649 -0.009898 15.253607 -3.716560 -0.502774 0.002735 0.037218 0.000000 0.000000 0.000000 0.000000 0.000000 0.000000 0.000000 14.016102 8.156684 1.538722 75.498170 18.315655 4.640928 0.989017 29.922950 -0.061049 -18.310750 12.381108 -2.066548 0.136678 -0.298116 0.000000 0.000000 0.000000 0.000000 0.000000 0.000000 0.000000 
